<svg id="visual" viewBox="0 0 900 600" width="900" height="600" xmlns="http://www.w3.org/2000/svg" xmlns:xlink="http://www.w3.org/1999/xlink" version="1.1"><rect x="0" y="0" width="900" height="600" fill="#001220"></rect><defs><linearGradient id="grad1_0" x1="33.3%" y1="0%" x2="100%" y2="100%"><stop offset="20%" stop-color="#00b2ff" stop-opacity="1"></stop><stop offset="80%" stop-color="#00b2ff" stop-opacity="1"></stop></linearGradient></defs><defs><linearGradient id="grad1_1" x1="33.3%" y1="0%" x2="100%" y2="100%"><stop offset="20%" stop-color="#00b2ff" stop-opacity="1"></stop><stop offset="80%" stop-color="#0e98db" stop-opacity="1"></stop></linearGradient></defs><defs><linearGradient id="grad1_2" x1="33.3%" y1="0%" x2="100%" y2="100%"><stop offset="20%" stop-color="#127fb9" stop-opacity="1"></stop><stop offset="80%" stop-color="#0e98db" stop-opacity="1"></stop></linearGradient></defs><defs><linearGradient id="grad1_3" x1="33.3%" y1="0%" x2="100%" y2="100%"><stop offset="20%" stop-color="#127fb9" stop-opacity="1"></stop><stop offset="80%" stop-color="#126797" stop-opacity="1"></stop></linearGradient></defs><defs><linearGradient id="grad1_4" x1="33.3%" y1="0%" x2="100%" y2="100%"><stop offset="20%" stop-color="#105077" stop-opacity="1"></stop><stop offset="80%" stop-color="#126797" stop-opacity="1"></stop></linearGradient></defs><defs><linearGradient id="grad1_5" x1="33.3%" y1="0%" x2="100%" y2="100%"><stop offset="20%" stop-color="#105077" stop-opacity="1"></stop><stop offset="80%" stop-color="#0c3a58" stop-opacity="1"></stop></linearGradient></defs><defs><linearGradient id="grad1_6" x1="33.3%" y1="0%" x2="100%" y2="100%"><stop offset="20%" stop-color="#07263b" stop-opacity="1"></stop><stop offset="80%" stop-color="#0c3a58" stop-opacity="1"></stop></linearGradient></defs><defs><linearGradient id="grad1_7" x1="33.3%" y1="0%" x2="100%" y2="100%"><stop offset="20%" stop-color="#07263b" stop-opacity="1"></stop><stop offset="80%" stop-color="#001220" stop-opacity="1"></stop></linearGradient></defs><defs><linearGradient id="grad2_0" x1="0%" y1="0%" x2="66.7%" y2="100%"><stop offset="20%" stop-color="#00b2ff" stop-opacity="1"></stop><stop offset="80%" stop-color="#00b2ff" stop-opacity="1"></stop></linearGradient></defs><defs><linearGradient id="grad2_1" x1="0%" y1="0%" x2="66.7%" y2="100%"><stop offset="20%" stop-color="#0e98db" stop-opacity="1"></stop><stop offset="80%" stop-color="#00b2ff" stop-opacity="1"></stop></linearGradient></defs><defs><linearGradient id="grad2_2" x1="0%" y1="0%" x2="66.7%" y2="100%"><stop offset="20%" stop-color="#0e98db" stop-opacity="1"></stop><stop offset="80%" stop-color="#127fb9" stop-opacity="1"></stop></linearGradient></defs><defs><linearGradient id="grad2_3" x1="0%" y1="0%" x2="66.7%" y2="100%"><stop offset="20%" stop-color="#126797" stop-opacity="1"></stop><stop offset="80%" stop-color="#127fb9" stop-opacity="1"></stop></linearGradient></defs><defs><linearGradient id="grad2_4" x1="0%" y1="0%" x2="66.7%" y2="100%"><stop offset="20%" stop-color="#126797" stop-opacity="1"></stop><stop offset="80%" stop-color="#105077" stop-opacity="1"></stop></linearGradient></defs><defs><linearGradient id="grad2_5" x1="0%" y1="0%" x2="66.7%" y2="100%"><stop offset="20%" stop-color="#0c3a58" stop-opacity="1"></stop><stop offset="80%" stop-color="#105077" stop-opacity="1"></stop></linearGradient></defs><defs><linearGradient id="grad2_6" x1="0%" y1="0%" x2="66.7%" y2="100%"><stop offset="20%" stop-color="#0c3a58" stop-opacity="1"></stop><stop offset="80%" stop-color="#07263b" stop-opacity="1"></stop></linearGradient></defs><defs><linearGradient id="grad2_7" x1="0%" y1="0%" x2="66.7%" y2="100%"><stop offset="20%" stop-color="#001220" stop-opacity="1"></stop><stop offset="80%" stop-color="#07263b" stop-opacity="1"></stop></linearGradient></defs><g transform="translate(900, 0)"><path d="M0 513.8C-43.1 508.7 -86.2 503.6 -133 496.3C-179.8 489 -230.3 479.5 -254.5 440.8C-278.7 402.1 -276.8 334.1 -295.6 295.6C-314.4 257.1 -354 248.1 -392.3 226.5C-430.7 204.9 -467.8 170.6 -487.8 130.7C-507.8 90.8 -510.8 45.4 -513.8 0L0 0Z" fill="#051c2d"></path><path d="M0 449.6C-37.7 445.1 -75.4 440.6 -116.4 434.2C-157.3 427.9 -201.5 419.6 -222.7 385.7C-243.9 351.8 -242.2 292.3 -258.6 258.6C-275.1 224.9 -309.7 217.1 -343.3 198.2C-376.8 179.3 -409.3 149.2 -426.8 114.4C-444.4 79.5 -447 39.7 -449.6 0L0 0Z" fill="#093049"></path><path d="M0 385.3C-32.3 381.5 -64.6 377.7 -99.7 372.2C-134.8 366.7 -172.7 359.7 -190.9 330.6C-209.1 301.6 -207.6 250.5 -221.7 221.7C-235.8 192.8 -265.5 186.1 -294.2 169.9C-323 153.7 -350.8 127.9 -365.8 98C-380.9 68.1 -383.1 34.1 -385.3 0L0 0Z" fill="#0e4567"></path><path d="M0 321.1C-26.9 317.9 -53.9 314.7 -83.1 310.2C-112.4 305.6 -143.9 299.7 -159.1 275.5C-174.2 251.3 -173 208.8 -184.7 184.7C-196.5 160.7 -221.2 155.1 -245.2 141.6C-269.2 128 -292.3 106.6 -304.9 81.7C-317.4 56.8 -319.3 28.4 -321.1 0L0 0Z" fill="#115c87"></path><path d="M0 256.9C-21.5 254.3 -43.1 251.8 -66.5 248.1C-89.9 244.5 -115.1 239.8 -127.2 220.4C-139.4 201 -138.4 167 -147.8 147.8C-157.2 128.5 -177 124.1 -196.2 113.3C-215.3 102.4 -233.9 85.3 -243.9 65.4C-253.9 45.4 -255.4 22.7 -256.9 0L0 0Z" fill="#1373a8"></path><path d="M0 192.7C-16.2 190.8 -32.3 188.8 -49.9 186.1C-67.4 183.4 -86.3 179.8 -95.4 165.3C-104.5 150.8 -103.8 125.3 -110.8 110.8C-117.9 96.4 -132.7 93 -147.1 84.9C-161.5 76.8 -175.4 64 -182.9 49C-190.4 34.1 -191.6 17 -192.7 0L0 0Z" fill="#118cca"></path><path d="M0 128.4C-10.8 127.2 -21.5 125.9 -33.2 124.1C-44.9 122.2 -57.6 119.9 -63.6 110.2C-69.7 100.5 -69.2 83.5 -73.9 73.9C-78.6 64.3 -88.5 62 -98.1 56.6C-107.7 51.2 -116.9 42.6 -121.9 32.7C-127 22.7 -127.7 11.4 -128.4 0L0 0Z" fill="#09a5ed"></path><path d="M0 64.2C-5.4 63.6 -10.8 62.9 -16.6 62C-22.5 61.1 -28.8 59.9 -31.8 55.1C-34.8 50.3 -34.6 41.8 -36.9 36.9C-39.3 32.1 -44.2 31 -49 28.3C-53.8 25.6 -58.5 21.3 -61 16.3C-63.5 11.4 -63.9 5.7 -64.2 0L0 0Z" fill="#00b2ff"></path></g><g transform="translate(0, 600)"><path d="M0 -513.8C32.2 -465.1 64.3 -416.5 110.8 -413.4C157.2 -410.4 218 -452.9 256.9 -445C295.8 -437 312.7 -378.6 336.6 -336.6C360.5 -294.6 391.3 -269.1 407 -235C422.7 -200.9 423.3 -158.1 438.5 -117.5C453.8 -76.9 483.8 -38.4 513.8 0L0 0Z" fill="#051c2d"></path><path d="M0 -449.6C28.1 -407 56.3 -364.4 96.9 -361.7C137.6 -359.1 190.8 -396.3 224.8 -389.3C258.8 -382.4 273.6 -331.2 294.5 -294.5C315.4 -257.8 342.4 -235.5 356.2 -205.6C369.9 -175.8 370.4 -138.3 383.7 -102.8C397.1 -67.3 423.3 -33.6 449.6 0L0 0Z" fill="#093049"></path><path d="M0 -385.3C24.1 -348.8 48.2 -312.4 83.1 -310.1C117.9 -307.8 163.5 -339.7 192.7 -333.7C221.8 -327.8 234.5 -283.9 252.4 -252.4C270.4 -221 293.5 -201.8 305.3 -176.3C317 -150.7 317.4 -118.6 328.9 -88.1C340.3 -57.7 362.8 -28.8 385.3 0L0 0Z" fill="#0e4567"></path><path d="M0 -321.1C20.1 -290.7 40.2 -260.3 69.2 -258.4C98.3 -256.5 136.3 -283.1 160.6 -278.1C184.8 -273.1 195.4 -236.6 210.4 -210.4C225.3 -184.1 244.6 -168.2 254.4 -146.9C264.2 -125.5 264.5 -98.8 274.1 -73.4C283.6 -48.1 302.4 -24 321.1 0L0 0Z" fill="#115c87"></path><path d="M0 -256.9C16.1 -232.6 32.2 -208.2 55.4 -206.7C78.6 -205.2 109 -226.5 128.4 -222.5C147.9 -218.5 156.3 -189.3 168.3 -168.3C180.2 -147.3 195.7 -134.6 203.5 -117.5C211.4 -100.4 211.6 -79.1 219.3 -58.8C226.9 -38.4 241.9 -19.2 256.9 0L0 0Z" fill="#1373a8"></path><path d="M0 -192.7C12.1 -174.4 24.1 -156.2 41.5 -155C59 -153.9 81.8 -169.8 96.3 -166.9C110.9 -163.9 117.3 -142 126.2 -126.2C135.2 -110.5 146.8 -100.9 152.6 -88.1C158.5 -75.3 158.7 -59.3 164.4 -44.1C170.2 -28.8 181.4 -14.4 192.7 0L0 0Z" fill="#118cca"></path><path d="M0 -128.4C8 -116.3 16.1 -104.1 27.7 -103.4C39.3 -102.6 54.5 -113.2 64.2 -111.2C73.9 -109.3 78.2 -94.6 84.1 -84.1C90.1 -73.7 97.8 -67.3 101.8 -58.8C105.7 -50.2 105.8 -39.5 109.6 -29.4C113.4 -19.2 120.9 -9.6 128.4 0L0 0Z" fill="#09a5ed"></path><path d="M0 -64.2C4 -58.1 8 -52.1 13.8 -51.7C19.7 -51.3 27.3 -56.6 32.1 -55.6C37 -54.6 39.1 -47.3 42.1 -42.1C45.1 -36.8 48.9 -33.6 50.9 -29.4C52.8 -25.1 52.9 -19.8 54.8 -14.7C56.7 -9.6 60.5 -4.8 64.2 0L0 0Z" fill="#00b2ff"></path></g></svg>