<svg id="visual" viewBox="0 0 960 540" width="960" height="540" xmlns="http://www.w3.org/2000/svg" xmlns:xlink="http://www.w3.org/1999/xlink" version="1.1"><path d="M0 255L14.5 230.7C29 206.3 58 157.7 87.2 128C116.3 98.3 145.7 87.7 174.8 96.7C204 105.7 233 134.3 262 148.7C291 163 320 163 349 153.2C378 143.3 407 123.7 436.2 128.2C465.3 132.7 494.7 161.3 523.8 169.3C553 177.3 582 164.7 611 148.5C640 132.3 669 112.7 698 119.8C727 127 756 161 785.2 161C814.3 161 843.7 127 872.8 110.8C902 94.7 931 96.3 945.5 97.2L960 98L960 0L945.5 0C931 0 902 0 872.8 0C843.7 0 814.3 0 785.2 0C756 0 727 0 698 0C669 0 640 0 611 0C582 0 553 0 523.8 0C494.7 0 465.3 0 436.2 0C407 0 378 0 349 0C320 0 291 0 262 0C233 0 204 0 174.8 0C145.7 0 116.3 0 87.2 0C58 0 29 0 14.5 0L0 0Z" fill="#6198ff"></path><path d="M0 395L14.5 373.5C29 352 58 309 87.2 295.5C116.3 282 145.7 298 174.8 305.2C204 312.3 233 310.7 262 317.8C291 325 320 341 349 343.7C378 346.3 407 335.7 436.2 323.2C465.3 310.7 494.7 296.3 523.8 288.2C553 280 582 278 611 276.2C640 274.3 669 272.7 698 280C727 287.3 756 303.7 785.2 316.3C814.3 329 843.7 338 872.8 329C902 320 931 293 945.5 279.5L960 266L960 96L945.5 95.2C931 94.3 902 92.7 872.8 108.8C843.7 125 814.3 159 785.2 159C756 159 727 125 698 117.8C669 110.7 640 130.3 611 146.5C582 162.7 553 175.3 523.8 167.3C494.7 159.3 465.3 130.7 436.2 126.2C407 121.7 378 141.3 349 151.2C320 161 291 161 262 146.7C233 132.3 204 103.7 174.8 94.7C145.7 85.7 116.3 96.3 87.2 126C58 155.7 29 204.3 14.5 228.7L0 253Z" fill="#3c80ff"></path><path d="M0 433L14.5 418.7C29 404.3 58 375.7 87.2 366.7C116.3 357.7 145.7 368.3 174.8 376.3C204 384.3 233 389.7 262 399.5C291 409.3 320 423.7 349 420.2C378 416.7 407 395.3 436.2 386.3C465.3 377.3 494.7 380.7 523.8 376.2C553 371.7 582 359.3 611 355.8C640 352.3 669 357.7 698 361.2C727 364.7 756 366.3 785.2 379.8C814.3 393.3 843.7 418.7 872.8 416C902 413.3 931 382.7 945.5 367.3L960 352L960 264L945.5 277.5C931 291 902 318 872.8 327C843.7 336 814.3 327 785.2 314.3C756 301.7 727 285.3 698 278C669 270.7 640 272.3 611 274.2C582 276 553 278 523.8 286.2C494.7 294.3 465.3 308.7 436.2 321.2C407 333.7 378 344.3 349 341.7C320 339 291 323 262 315.8C233 308.7 204 310.3 174.8 303.2C145.7 296 116.3 280 87.2 293.5C58 307 29 350 14.5 371.5L0 393Z" fill="#0066ff"></path><path d="M0 471L14.5 459.3C29 447.7 58 424.3 87.2 420.7C116.3 417 145.7 433 174.8 445.5C204 458 233 467 262 474.2C291 481.3 320 486.7 349 480.3C378 474 407 456 436.2 446.2C465.3 436.3 494.7 434.7 523.8 432C553 429.3 582 425.7 611 426.5C640 427.3 669 432.7 698 435.3C727 438 756 438 785.2 445.3C814.3 452.7 843.7 467.3 872.8 467.3C902 467.3 931 452.7 945.5 445.3L960 438L960 350L945.5 365.3C931 380.7 902 411.3 872.8 414C843.7 416.7 814.3 391.3 785.2 377.8C756 364.3 727 362.7 698 359.2C669 355.7 640 350.3 611 353.8C582 357.3 553 369.7 523.8 374.2C494.7 378.7 465.3 375.3 436.2 384.3C407 393.3 378 414.7 349 418.2C320 421.7 291 407.3 262 397.5C233 387.7 204 382.3 174.8 374.3C145.7 366.3 116.3 355.7 87.2 364.7C58 373.7 29 402.3 14.5 416.7L0 431Z" fill="#0059dd"></path><path d="M0 541L14.5 541C29 541 58 541 87.2 541C116.3 541 145.7 541 174.8 541C204 541 233 541 262 541C291 541 320 541 349 541C378 541 407 541 436.2 541C465.3 541 494.7 541 523.8 541C553 541 582 541 611 541C640 541 669 541 698 541C727 541 756 541 785.2 541C814.3 541 843.7 541 872.8 541C902 541 931 541 945.5 541L960 541L960 436L945.5 443.3C931 450.7 902 465.3 872.8 465.3C843.7 465.3 814.3 450.7 785.2 443.3C756 436 727 436 698 433.3C669 430.7 640 425.3 611 424.5C582 423.7 553 427.3 523.8 430C494.7 432.7 465.3 434.3 436.2 444.2C407 454 378 472 349 478.3C320 484.7 291 479.3 262 472.2C233 465 204 456 174.8 443.5C145.7 431 116.3 415 87.2 418.7C58 422.3 29 445.7 14.5 457.3L0 469Z" fill="#004cbb"></path></svg>