<svg id="visual" viewBox="0 0 960 540" width="960" height="540" xmlns="http://www.w3.org/2000/svg" xmlns:xlink="http://www.w3.org/1999/xlink" version="1.1"><path d="M0 71L14.5 66.5C29 62 58 53 87.2 54C116.3 55 145.7 66 174.8 71.5C204 77 233 77 262 79.7C291 82.3 320 87.7 349 82.2C378 76.7 407 60.3 436.2 54C465.3 47.7 494.7 51.3 523.8 51.3C553 51.3 582 47.7 611 49.5C640 51.3 669 58.7 698 56.8C727 55 756 44 785.2 39.5C814.3 35 843.7 37 872.8 38C902 39 931 39 945.5 39L960 39L960 0L945.5 0C931 0 902 0 872.8 0C843.7 0 814.3 0 785.2 0C756 0 727 0 698 0C669 0 640 0 611 0C582 0 553 0 523.8 0C494.7 0 465.3 0 436.2 0C407 0 378 0 349 0C320 0 291 0 262 0C233 0 204 0 174.8 0C145.7 0 116.3 0 87.2 0C58 0 29 0 14.5 0L0 0Z" fill="#010e22"></path><path d="M0 152L14.5 155.7C29 159.3 58 166.7 87.2 184.7C116.3 202.7 145.7 231.3 174.8 244.8C204 258.3 233 256.7 262 263C291 269.3 320 283.7 349 287.2C378 290.7 407 283.3 436.2 277C465.3 270.7 494.7 265.3 523.8 251.8C553 238.3 582 216.7 611 211.3C640 206 669 217 698 227.8C727 238.7 756 249.3 785.2 241.2C814.3 233 843.7 206 872.8 189C902 172 931 165 945.5 161.5L960 158L960 37L945.5 37C931 37 902 37 872.8 36C843.7 35 814.3 33 785.2 37.5C756 42 727 53 698 54.8C669 56.7 640 49.3 611 47.5C582 45.7 553 49.3 523.8 49.3C494.7 49.3 465.3 45.7 436.2 52C407 58.3 378 74.7 349 80.2C320 85.7 291 80.3 262 77.7C233 75 204 75 174.8 69.5C145.7 64 116.3 53 87.2 52C58 51 29 60 14.5 64.5L0 69Z" fill="#011027"></path><path d="M0 260L14.5 261.8C29 263.7 58 267.3 87.2 280.8C116.3 294.3 145.7 317.7 174.8 329.3C204 341 233 341 262 344.7C291 348.3 320 355.7 349 362C378 368.3 407 373.7 436.2 371.8C465.3 370 494.7 361 523.8 347.5C553 334 582 316 611 307.8C640 299.7 669 301.3 698 313C727 324.7 756 346.3 785.2 341.8C814.3 337.3 843.7 306.7 872.8 287.8C902 269 931 262 945.5 258.5L960 255L960 156L945.5 159.5C931 163 902 170 872.8 187C843.7 204 814.3 231 785.2 239.2C756 247.3 727 236.7 698 225.8C669 215 640 204 611 209.3C582 214.7 553 236.3 523.8 249.8C494.7 263.3 465.3 268.7 436.2 275C407 281.3 378 288.7 349 285.2C320 281.7 291 267.3 262 261C233 254.7 204 256.3 174.8 242.8C145.7 229.3 116.3 200.7 87.2 182.7C58 164.7 29 157.3 14.5 153.7L0 150Z" fill="#00112c"></path><path d="M0 471L14.5 467.3C29 463.7 58 456.3 87.2 460.8C116.3 465.3 145.7 481.7 174.8 483.5C204 485.3 233 472.7 262 465.5C291 458.3 320 456.7 349 460.3C378 464 407 473 436.2 466.7C465.3 460.3 494.7 438.7 523.8 432.3C553 426 582 435 611 440.3C640 445.7 669 447.3 698 449.2C727 451 756 453 785.2 444C814.3 435 843.7 415 872.8 417.7C902 420.3 931 445.7 945.5 458.3L960 471L960 253L945.5 256.5C931 260 902 267 872.8 285.8C843.7 304.7 814.3 335.3 785.2 339.8C756 344.3 727 322.7 698 311C669 299.3 640 297.7 611 305.8C582 314 553 332 523.8 345.5C494.7 359 465.3 368 436.2 369.8C407 371.7 378 366.3 349 360C320 353.7 291 346.3 262 342.7C233 339 204 339 174.8 327.3C145.7 315.7 116.3 292.3 87.2 278.8C58 265.3 29 261.7 14.5 259.8L0 258Z" fill="#00204b"></path><path d="M0 541L14.5 541C29 541 58 541 87.2 541C116.3 541 145.7 541 174.8 541C204 541 233 541 262 541C291 541 320 541 349 541C378 541 407 541 436.2 541C465.3 541 494.7 541 523.8 541C553 541 582 541 611 541C640 541 669 541 698 541C727 541 756 541 785.2 541C814.3 541 843.7 541 872.8 541C902 541 931 541 945.5 541L960 541L960 469L945.5 456.3C931 443.7 902 418.3 872.8 415.7C843.7 413 814.3 433 785.2 442C756 451 727 449 698 447.2C669 445.3 640 443.7 611 438.3C582 433 553 424 523.8 430.3C494.7 436.7 465.3 458.3 436.2 464.7C407 471 378 462 349 458.3C320 454.7 291 456.3 262 463.5C233 470.7 204 483.3 174.8 481.5C145.7 479.7 116.3 463.3 87.2 458.8C58 454.3 29 461.7 14.5 465.3L0 469Z" fill="#002f6c"></path></svg>